<?xml version="1.0" standalone="no"?>
<!DOCTYPE svg PUBLIC "-//W3C//DTD SVG 20010904//EN"
 "http://www.w3.org/TR/2001/REC-SVG-20010904/DTD/svg10.dtd">
<svg version="1.0" xmlns="http://www.w3.org/2000/svg"
 width="697.000000pt" height="697.000000pt" viewBox="0 0 697.000000 697.000000"
 preserveAspectRatio="xMidYMid meet">
<metadata>
Created by potrace 1.11, written by Peter Selinger 2001-2013
</metadata>
<g transform="translate(0.000000,697.000000) scale(0.100000,-0.100000)"
fill="#000000" stroke="none">
<path d="M3405 6929 c-82 -4 -181 -12 -220 -18 -313 -49 -389 -62 -427 -75
-120 -39 -266 -84 -293 -90 -107 -24 -530 -218 -715 -329 -115 -69 -325 -217
-350 -248 -3 -3 -12 -10 -21 -15 -18 -10 -81 -59 -115 -89 -12 -11 -50 -45
-84 -75 -59 -52 -183 -176 -299 -300 -52 -55 -157 -191 -221 -285 -19 -27 -43
-59 -53 -70 -10 -11 -28 -36 -40 -55 -11 -19 -24 -37 -28 -40 -3 -3 -14 -21
-24 -40 -9 -19 -23 -42 -30 -50 -12 -14 -39 -59 -63 -106 -5 -11 -19 -38 -31
-61 -12 -24 -19 -43 -16 -43 4 0 -2 -12 -13 -27 -11 -16 -27 -46 -37 -68 -10
-22 -33 -72 -51 -112 -19 -39 -34 -77 -34 -85 0 -7 -9 -38 -20 -68 -84 -224
-103 -295 -150 -565 -12 -66 -30 -167 -41 -225 -24 -126 -30 -218 -19 -262 5
-18 11 -107 13 -198 5 -150 31 -442 42 -460 2 -3 7 -22 10 -41 21 -131 50
-248 80 -334 20 -55 42 -120 50 -145 39 -125 96 -275 128 -337 71 -140 100
-189 127 -218 15 -16 66 -88 113 -160 74 -113 179 -259 220 -305 7 -8 54 -62
104 -120 102 -117 229 -243 347 -340 44 -36 84 -70 90 -75 20 -19 280 -191
349 -231 172 -99 206 -117 257 -136 30 -11 69 -25 85 -32 318 -134 521 -201
690 -227 66 -10 227 -32 350 -48 136 -17 455 -20 583 -5 64 7 155 18 202 23
118 13 330 51 350 61 9 5 65 20 125 34 61 15 119 30 130 35 11 5 45 18 75 29
30 11 80 31 110 45 30 14 89 39 130 57 387 165 793 425 1065 680 103 97 273
270 303 309 15 19 37 46 50 60 42 46 159 205 185 253 14 26 49 81 77 123 27
42 50 79 50 82 0 4 6 14 14 22 46 52 214 427 260 581 14 47 41 137 60 200 20
63 38 135 42 160 3 25 16 68 28 95 15 31 28 91 35 160 7 61 15 126 17 145 15
121 12 413 -7 631 -11 130 -21 245 -23 255 -10 50 -20 84 -42 147 -13 38 -24
78 -24 89 0 40 -70 256 -135 417 -120 298 -178 416 -293 596 -72 111 -267 359
-367 465 -87 92 -272 267 -330 310 -33 25 -62 47 -65 50 -10 11 -217 158 -240
170 -13 7 -29 17 -34 22 -50 41 -366 209 -491 260 -182 75 -424 146 -600 178
-27 4 -57 11 -65 14 -8 3 -95 17 -192 31 -199 29 -407 36 -643 24z m340 -274
c94 -9 177 -18 185 -20 8 -3 35 -7 60 -10 316 -38 759 -195 1077 -381 348
-203 582 -393 807 -654 103 -119 271 -349 297 -405 12 -25 59 -99 122 -194 43
-64 63 -103 121 -236 86 -195 157 -444 216 -750 16 -82 28 -237 34 -430 5
-183 -43 -604 -83 -725 -5 -14 -14 -50 -21 -80 -49 -223 -241 -688 -341 -829
-22 -30 -39 -58 -39 -62 0 -23 -193 -291 -274 -380 -28 -31 -67 -73 -86 -95
-73 -83 -336 -316 -405 -359 -16 -10 -106 -69 -200 -131 -197 -130 -408 -235
-610 -304 -49 -17 -106 -38 -125 -47 -50 -24 -398 -99 -615 -134 -94 -15 -173
-19 -366 -19 -244 0 -334 8 -539 45 -47 9 -101 18 -120 21 -19 3 -42 8 -50 12
-8 3 -24 7 -35 8 -18 3 -97 23 -220 58 -27 7 -77 26 -110 41 -33 15 -90 37
-127 50 -63 22 -267 114 -278 125 -3 3 -25 15 -50 28 -57 28 -128 70 -177 103
-21 15 -65 44 -98 65 -33 21 -62 41 -65 44 -3 3 -23 18 -45 34 -173 127 -381
317 -471 431 -52 66 -66 83 -88 108 -31 37 -198 294 -283 437 -59 99 -87 159
-107 225 -30 102 -52 169 -89 270 -15 39 -38 117 -51 175 -14 58 -33 139 -44
180 -37 145 -72 444 -72 613 0 147 15 345 36 476 8 51 17 112 20 135 3 22 14
73 24 111 11 39 24 90 31 115 36 137 54 191 129 383 16 43 32 89 34 103 12 63
171 348 261 466 11 14 31 41 45 59 217 288 441 518 676 694 54 41 104 78 109
82 6 5 30 21 55 38 25 16 47 32 50 35 13 14 161 96 286 159 276 137 331 157
664 242 309 78 625 103 945 74z"/>
<path d="M2188 4356 c-10 -7 -24 -29 -32 -48 -8 -19 -40 -59 -71 -89 -43 -42
-57 -63 -62 -94 -3 -22 -26 -71 -50 -109 -25 -38 -55 -93 -68 -122 -13 -29
-45 -79 -72 -111 -26 -32 -55 -70 -64 -83 l-16 -24 -40 17 c-23 11 -56 17 -79
15 l-39 -3 -35 68 c-19 38 -44 74 -55 80 -11 6 -32 23 -47 38 -32 31 -78 45
-105 30 -10 -5 -39 -13 -65 -16 -26 -3 -62 -17 -81 -30 -19 -12 -44 -26 -56
-30 -12 -3 -33 -23 -49 -43 -50 -67 -67 -84 -104 -103 -49 -25 -134 -109 -151
-150 -52 -126 -12 -227 94 -237 42 -4 54 -1 85 23 19 15 40 37 46 50 5 12 32
33 59 45 27 13 64 41 84 62 31 35 39 39 67 33 18 -4 46 -16 62 -27 16 -12 42
-21 57 -20 28 1 38 -8 77 -65 8 -11 29 -27 47 -37 18 -10 41 -34 51 -52 11
-19 42 -52 70 -73 41 -31 64 -40 112 -46 l60 -7 36 55 c20 30 48 67 63 81 14
15 47 63 73 109 26 45 56 92 66 103 11 12 24 30 30 40 16 27 82 58 98 45 7 -6
25 -34 40 -62 21 -37 25 -54 17 -62 -6 -6 -11 -39 -11 -74 0 -51 3 -64 19 -72
10 -6 21 -23 24 -38 8 -41 27 -120 43 -184 8 -30 14 -73 14 -96 0 -27 6 -46
20 -58 14 -13 20 -31 20 -61 0 -24 5 -46 11 -49 6 -4 8 -26 4 -58 -4 -34 -2
-63 6 -82 7 -16 13 -48 14 -69 0 -34 4 -41 25 -46 23 -6 25 -11 25 -61 0 -31
6 -63 13 -72 9 -10 11 -30 7 -59 -6 -47 8 -84 39 -102 11 -6 28 -19 38 -28 21
-21 32 -22 61 -7 48 26 110 109 181 244 12 22 44 74 71 116 71 107 73 109 100
165 13 28 31 57 40 64 9 7 23 29 31 49 33 79 69 89 162 42 56 -28 82 -50 150
-124 42 -46 114 -70 175 -58 67 13 149 62 160 97 5 16 18 38 29 50 10 11 16
28 13 36 -3 8 11 41 33 74 65 98 112 181 112 198 0 22 37 38 71 31 41 -9 132
-100 125 -123 -5 -16 17 -64 109 -242 21 -41 55 -128 55 -142 0 -21 63 -58
101 -58 100 0 161 48 198 155 28 84 61 153 101 217 16 26 34 67 40 90 7 24 23
63 36 87 13 24 24 52 24 62 0 10 5 21 11 25 7 4 9 21 5 44 -4 27 -2 41 9 50 8
6 21 37 30 67 17 59 53 103 83 103 19 0 46 -34 89 -111 14 -24 20 -53 20 -86
-1 -34 5 -59 19 -79 12 -16 31 -55 43 -86 18 -45 34 -65 79 -98 52 -39 59 -42
101 -36 25 3 50 11 55 16 6 6 17 10 26 10 9 0 25 10 36 21 10 12 43 33 72 47
31 14 64 40 80 61 36 50 51 61 84 61 21 0 39 -11 63 -37 19 -21 35 -41 35 -45
0 -4 20 -37 45 -74 43 -62 49 -81 45 -132 -1 -12 5 -25 14 -28 8 -3 22 -29 30
-58 19 -66 45 -99 102 -132 39 -23 53 -26 101 -21 30 3 63 13 73 22 21 19 60
134 60 178 0 17 -14 55 -30 82 -21 36 -30 63 -30 96 0 38 -5 50 -34 78 -19 18
-42 54 -52 79 -9 25 -28 61 -41 80 -12 19 -23 42 -23 51 0 9 -20 51 -45 93
-24 42 -49 95 -54 118 -5 23 -11 42 -13 44 -1 1 -21 14 -44 29 -42 28 -72 33
-102 18 -9 -6 -53 -26 -96 -47 -88 -40 -83 -37 -146 -92 -58 -51 -87 -65 -115
-58 -35 9 -86 80 -99 138 -9 41 -17 55 -41 68 -21 12 -32 26 -36 51 -3 19 -17
57 -32 85 -14 28 -24 54 -20 57 3 3 -11 25 -30 49 -19 24 -40 61 -46 84 -8 29
-27 56 -65 93 -49 45 -60 51 -99 51 -34 0 -54 -8 -88 -32 -59 -42 -68 -56 -69
-100 0 -22 -17 -73 -40 -124 -22 -48 -40 -91 -40 -96 0 -5 -9 -28 -20 -50 -11
-23 -20 -56 -20 -74 0 -37 -23 -97 -54 -139 -37 -50 -67 -122 -75 -180 -6 -45
-14 -61 -44 -90 -31 -30 -39 -34 -59 -24 -41 19 -128 194 -128 259 0 9 -18 46
-40 83 -22 36 -40 72 -40 80 0 7 -15 30 -32 51 -48 55 -100 60 -167 17 -92
-59 -153 -136 -167 -211 -3 -14 -14 -34 -24 -45 -11 -12 -23 -36 -26 -55 -8
-43 -28 -82 -49 -100 -10 -8 -32 -38 -50 -66 -33 -51 -47 -69 -96 -126 -22
-24 -29 -26 -76 -21 -58 6 -123 50 -123 83 0 11 -12 26 -28 34 -15 8 -36 23
-46 35 -11 12 -24 21 -31 21 -22 0 -34 21 -23 40 6 10 8 25 5 34 -6 14 -16 16
-59 11 -109 -13 -216 -89 -223 -160 -3 -25 -25 -60 -81 -130 -18 -22 -44 -66
-58 -99 l-26 -59 -41 6 c-22 3 -43 7 -45 10 -2 2 -7 28 -10 58 -3 30 -10 59
-16 66 -5 6 -14 42 -19 78 -5 37 -18 88 -28 113 -34 82 -61 180 -61 218 0 21
-7 46 -17 56 -13 15 -14 23 -5 44 17 37 15 53 -14 92 -22 28 -26 44 -25 87 0
33 -6 69 -18 96 -28 64 -71 236 -71 285 0 63 -14 90 -63 118 -48 28 -102 33
-129 12z"/>
</g>
</svg>
